STARTFONT 2.1
COMMENT
COMMENT Converted from OpenType font "hyundai-led.ttf" by "otf2bdf 3.0".
COMMENT
FONT -FreeType-Hyundai LED-Medium-R-Normal--8-60-100-100-P-61-ISO10646-1
SIZE 6 100 100
FONTBOUNDINGBOX 6 9 0 0
STARTPROPERTIES 19
FOUNDRY "FreeType"
FAMILY_NAME "Hyundai LED"
WEIGHT_NAME "Medium"
SLANT "R"
SETWIDTH_NAME "Normal"
ADD_STYLE_NAME ""
PIXEL_SIZE 8
POINT_SIZE 60
RESOLUTION_X 100
RESOLUTION_Y 100
SPACING "P"
AVERAGE_WIDTH 61
CHARSET_REGISTRY "ISO10646"
CHARSET_ENCODING "1"
FONT_ASCENT 9
FONT_DESCENT 0
COPYRIGHT "Copyright Muhammad Evanalexander 2020"
_OTF_FONTFILE "hyundai-led.ttf"
_OTF_PSNAME "Hyundai-LED"
ENDPROPERTIES
CHARS 42
STARTCHAR 0020
ENCODING 32
SWIDTH 360 0
DWIDTH 3 0
BBX 0 0 0 0
BITMAP
ENDCHAR
STARTCHAR 002C
ENCODING 44
SWIDTH 840 0
DWIDTH 7 0
BBX 6 5 0 3
BITMAP
20
A4
68
00
20
ENDCHAR
STARTCHAR 0030
ENCODING 48
SWIDTH 840 0
DWIDTH 7 0
BBX 6 8 0 0
BITMAP
68
84
84
84
00
84
84
68
ENDCHAR
STARTCHAR 0031
ENCODING 49
SWIDTH 720 0
DWIDTH 6 0
BBX 4 8 1 0
BITMAP
40
C0
40
40
00
40
40
D0
ENDCHAR
STARTCHAR 0032
ENCODING 50
SWIDTH 840 0
DWIDTH 7 0
BBX 6 8 0 0
BITMAP
68
84
04
28
00
40
80
EC
ENDCHAR
STARTCHAR 0033
ENCODING 51
SWIDTH 840 0
DWIDTH 7 0
BBX 6 8 0 0
BITMAP
68
84
04
28
00
04
84
68
ENDCHAR
STARTCHAR 0034
ENCODING 52
SWIDTH 840 0
DWIDTH 7 0
BBX 6 8 0 0
BITMAP
08
28
48
88
00
EC
08
08
ENDCHAR
STARTCHAR 0035
ENCODING 53
SWIDTH 840 0
DWIDTH 7 0
BBX 6 8 0 0
BITMAP
EC
80
80
E8
00
04
84
68
ENDCHAR
STARTCHAR 0036
ENCODING 54
SWIDTH 840 0
DWIDTH 7 0
BBX 6 8 0 0
BITMAP
68
84
80
E8
00
84
84
68
ENDCHAR
STARTCHAR 0037
ENCODING 55
SWIDTH 840 0
DWIDTH 7 0
BBX 6 8 0 0
BITMAP
EC
04
08
20
00
20
20
20
ENDCHAR
STARTCHAR 0038
ENCODING 56
SWIDTH 840 0
DWIDTH 7 0
BBX 6 8 0 0
BITMAP
68
84
84
68
00
84
84
68
ENDCHAR
STARTCHAR 0039
ENCODING 57
SWIDTH 840 0
DWIDTH 7 0
BBX 6 8 0 0
BITMAP
68
84
84
6C
00
04
84
68
ENDCHAR
STARTCHAR 003A
ENCODING 58
SWIDTH 600 0
DWIDTH 5 0
BBX 2 6 1 1
BITMAP
C0
C0
00
00
C0
C0
ENDCHAR
STARTCHAR 003C
ENCODING 60
SWIDTH 840 0
DWIDTH 7 0
BBX 6 8 0 1
BITMAP
20
68
A4
20
00
20
20
20
ENDCHAR
STARTCHAR 003D
ENCODING 61
SWIDTH 840 0
DWIDTH 7 0
BBX 6 5 0 1
BITMAP
20
00
68
A4
20
ENDCHAR
STARTCHAR 003E
ENCODING 62
SWIDTH 840 0
DWIDTH 7 0
BBX 6 8 0 1
BITMAP
20
20
20
20
00
A4
68
20
ENDCHAR
STARTCHAR 0041
ENCODING 65
SWIDTH 840 0
DWIDTH 7 0
BBX 6 8 0 0
BITMAP
20
48
84
EC
00
84
84
84
ENDCHAR
STARTCHAR 0042
ENCODING 66
SWIDTH 840 0
DWIDTH 7 0
BBX 6 8 0 0
BITMAP
E8
84
84
E8
00
84
84
E8
ENDCHAR
STARTCHAR 0043
ENCODING 67
SWIDTH 840 0
DWIDTH 7 0
BBX 6 8 0 0
BITMAP
68
84
80
80
00
80
84
68
ENDCHAR
STARTCHAR 0044
ENCODING 68
SWIDTH 840 0
DWIDTH 7 0
BBX 6 8 0 0
BITMAP
E8
84
84
84
00
84
84
E8
ENDCHAR
STARTCHAR 0045
ENCODING 69
SWIDTH 840 0
DWIDTH 7 0
BBX 6 8 0 0
BITMAP
EC
80
80
E8
00
80
80
EC
ENDCHAR
STARTCHAR 0046
ENCODING 70
SWIDTH 840 0
DWIDTH 7 0
BBX 6 8 0 0
BITMAP
EC
80
80
E8
00
80
80
80
ENDCHAR
STARTCHAR 0047
ENCODING 71
SWIDTH 840 0
DWIDTH 7 0
BBX 6 8 0 0
BITMAP
68
84
80
AC
00
88
68
08
ENDCHAR
STARTCHAR 0048
ENCODING 72
SWIDTH 840 0
DWIDTH 7 0
BBX 6 8 0 0
BITMAP
84
84
84
EC
00
84
84
84
ENDCHAR
STARTCHAR 0049
ENCODING 73
SWIDTH 720 0
DWIDTH 6 0
BBX 4 8 1 0
BITMAP
D0
40
40
40
00
40
40
D0
ENDCHAR
STARTCHAR 004A
ENCODING 74
SWIDTH 720 0
DWIDTH 6 0
BBX 5 8 0 0
BITMAP
68
08
08
08
00
08
88
60
ENDCHAR
STARTCHAR 004B
ENCODING 75
SWIDTH 840 0
DWIDTH 7 0
BBX 6 8 0 0
BITMAP
84
88
A0
C0
00
A0
88
84
ENDCHAR
STARTCHAR 004C
ENCODING 76
SWIDTH 840 0
DWIDTH 7 0
BBX 6 8 0 0
BITMAP
80
80
80
80
00
80
80
EC
ENDCHAR
STARTCHAR 004D
ENCODING 77
SWIDTH 840 0
DWIDTH 7 0
BBX 6 8 0 0
BITMAP
84
CC
A4
84
00
84
84
84
ENDCHAR
STARTCHAR 004E
ENCODING 78
SWIDTH 840 0
DWIDTH 7 0
BBX 6 8 0 0
BITMAP
84
C4
A4
8C
00
84
84
84
ENDCHAR
STARTCHAR 004F
ENCODING 79
SWIDTH 840 0
DWIDTH 7 0
BBX 6 8 0 0
BITMAP
68
84
84
84
00
84
84
68
ENDCHAR
STARTCHAR 0050
ENCODING 80
SWIDTH 840 0
DWIDTH 7 0
BBX 6 8 0 0
BITMAP
E8
84
84
E8
00
80
80
80
ENDCHAR
STARTCHAR 0051
ENCODING 81
SWIDTH 840 0
DWIDTH 7 0
BBX 6 8 0 0
BITMAP
68
84
84
84
00
84
88
64
ENDCHAR
STARTCHAR 0052
ENCODING 82
SWIDTH 840 0
DWIDTH 7 0
BBX 6 8 0 0
BITMAP
E8
84
84
E8
00
A0
88
84
ENDCHAR
STARTCHAR 0053
ENCODING 83
SWIDTH 840 0
DWIDTH 7 0
BBX 6 8 0 0
BITMAP
68
84
80
68
00
04
84
68
ENDCHAR
STARTCHAR 0054
ENCODING 84
SWIDTH 840 0
DWIDTH 7 0
BBX 6 8 0 0
BITMAP
EC
20
20
20
00
20
20
20
ENDCHAR
STARTCHAR 0055
ENCODING 85
SWIDTH 840 0
DWIDTH 7 0
BBX 6 8 0 0
BITMAP
84
84
84
84
00
84
84
68
ENDCHAR
STARTCHAR 0056
ENCODING 86
SWIDTH 840 0
DWIDTH 7 0
BBX 6 8 0 0
BITMAP
84
84
84
84
00
84
48
20
ENDCHAR
STARTCHAR 0057
ENCODING 87
SWIDTH 840 0
DWIDTH 7 0
BBX 6 8 0 0
BITMAP
84
84
84
84
00
A4
CC
84
ENDCHAR
STARTCHAR 0058
ENCODING 88
SWIDTH 840 0
DWIDTH 7 0
BBX 6 8 0 0
BITMAP
84
84
48
20
00
48
84
84
ENDCHAR
STARTCHAR 0059
ENCODING 89
SWIDTH 840 0
DWIDTH 7 0
BBX 6 8 0 0
BITMAP
84
84
48
20
00
20
20
20
ENDCHAR
STARTCHAR 005A
ENCODING 90
SWIDTH 840 0
DWIDTH 7 0
BBX 6 8 0 0
BITMAP
EC
04
08
20
00
40
80
EC
ENDCHAR
ENDFONT
